<svg width="94" height="40" viewBox="0 0 94 40" fill="none" xmlns="http://www.w3.org/2000/svg">
<path fill-rule="evenodd" clip-rule="evenodd" d="M32.3809 0H0V32.3809H0.0020494L0.00204873 39.9998L7.62086 32.3809H32.3809V0Z" fill="#1E3DAF"/>
<path d="M6.3417 22.6001L7.82794 22.2838V10.1726L6.18359 9.85639V8.00124H10.8953V14.4943C11.2537 13.9673 11.6929 13.5597 12.2129 13.2716C12.7329 12.9764 13.3091 12.8289 13.9415 12.8289C15.1361 12.8289 16.0708 13.2259 16.7454 14.02C17.427 14.807 17.7678 16.0262 17.7678 17.6776V22.2838L19.2435 22.6001V24.4447H13.3618V22.6001L14.6899 22.2838V17.6565C14.6899 16.7711 14.5318 16.1457 14.2156 15.7802C13.9064 15.4078 13.4426 15.2216 12.8242 15.2216C12.3956 15.2216 12.0196 15.2989 11.6964 15.4535C11.3801 15.6081 11.1131 15.8259 10.8953 16.107V22.2838L12.2234 22.6001V24.4447H6.3417V22.6001Z" fill="white"/>
<path d="M20.1395 22.6001L21.6257 22.2838V15.2111L19.9813 14.8948V13.0397H24.7036V22.2838L26.1793 22.6001V24.4447H20.1395V22.6001ZM24.7036 10.3096H21.6257V8.00124H24.7036V10.3096Z" fill="white"/>
<path d="M45.8198 9.09623C47.6258 9.09623 49.0347 9.44759 50.0466 10.1503C51.0585 10.853 51.5645 11.9036 51.5645 13.302C51.5645 14.0117 51.3748 14.6477 50.9953 15.2098C50.6229 15.765 50.0783 16.1831 49.3615 16.4642C50.282 16.6609 50.9707 17.0825 51.4275 17.729C51.8912 18.3755 52.1231 19.1239 52.1231 19.9742C52.1231 21.4429 51.6383 22.5567 50.6685 23.3156C49.6988 24.0675 48.325 24.4434 46.5471 24.4434H39V22.5988L40.6338 22.2826V11.2676L39 10.9514V9.09623H40.6338H45.8198ZM43.7117 17.6553V22.0823H46.5471C47.3623 22.0823 47.9842 21.9067 48.4128 21.5553C48.8415 21.1969 49.0558 20.6699 49.0558 19.9742C49.0558 19.2223 48.8731 18.6496 48.5077 18.2561C48.1423 17.8555 47.5661 17.6553 46.779 17.6553H43.7117ZM43.7117 15.526H45.9252C46.7474 15.526 47.3798 15.3574 47.8225 15.0201C48.2653 14.6828 48.4866 14.1909 48.4866 13.5444C48.4866 12.8347 48.2617 12.3111 47.812 11.9738C47.3693 11.6365 46.7052 11.4679 45.8198 11.4679H43.7117V15.526Z" fill="#2A2F37"/>
<path d="M53.5778 22.5988L55.0535 22.2826V15.2098L53.4196 14.8936V13.0384H57.9205L58.0575 14.7039C58.3246 14.1136 58.6689 13.6533 59.0905 13.323C59.5122 12.9928 60.0005 12.8276 60.5557 12.8276C60.7173 12.8276 60.886 12.8417 61.0616 12.8698C61.2443 12.8909 61.3954 12.919 61.5149 12.9541L61.1881 15.7579L59.9232 15.7263C59.4735 15.7263 59.1011 15.8142 58.8059 15.9898C58.5108 16.1655 58.2859 16.415 58.1313 16.7382V22.2826L59.607 22.5988V24.4434H53.5778V22.5988Z" fill="#2A2F37"/>
<path d="M69.4836 24.4434C69.3993 24.2537 69.3255 24.0605 69.2623 23.8637C69.199 23.6599 69.1498 23.4561 69.1147 23.2524C68.7493 23.674 68.3031 24.0148 67.776 24.2748C67.256 24.5348 66.6587 24.6648 65.9841 24.6648C64.8668 24.6648 63.9779 24.3626 63.3173 23.7583C62.6638 23.1469 62.3371 22.3177 62.3371 21.2707C62.3371 20.2026 62.7657 19.3769 63.623 18.7936C64.4803 18.2104 65.7382 17.9188 67.3966 17.9188H68.9671V16.8015C68.9671 16.2533 68.809 15.8282 68.4928 15.526C68.1766 15.2239 67.7093 15.0728 67.0909 15.0728C66.7395 15.0728 66.4268 15.115 66.1528 15.1993C65.8787 15.2766 65.6574 15.3714 65.4887 15.4839L65.2884 16.7066H62.9695L62.98 14.1768C63.5422 13.7974 64.1852 13.4776 64.909 13.2176C65.6398 12.9576 66.4339 12.8276 67.2912 12.8276C68.7036 12.8276 69.849 13.1755 70.7274 13.8712C71.6129 14.5598 72.0556 15.5436 72.0556 16.8225V21.5342C72.0556 21.7099 72.0556 21.875 72.0556 22.0296C72.0626 22.1842 72.0766 22.3318 72.0977 22.4723L73.0358 22.5988V24.4434H69.4836ZM66.8168 22.388C67.2806 22.388 67.7023 22.2896 68.0817 22.0929C68.4612 21.8891 68.7563 21.6361 68.9671 21.334V19.5947H67.3966C66.7431 19.5947 66.2477 19.7493 65.9103 20.0585C65.573 20.3607 65.4044 20.7261 65.4044 21.1548C65.4044 21.5413 65.5274 21.8434 65.7733 22.0613C66.0263 22.2791 66.3741 22.388 66.8168 22.388Z" fill="#2A2F37"/>
<path d="M73.995 22.5988L75.4813 22.2826V15.2098L73.8369 14.8936V13.0384H78.5592V22.2826L80.0349 22.5988V24.4434H73.995V22.5988ZM78.5592 10.3084H75.4813V8H78.5592V10.3084Z" fill="#2A2F37"/>
<path d="M80.8781 22.5988L82.3538 22.2826V15.2098L80.72 14.8936V13.0384H85.2209L85.3579 14.6722C85.7374 14.089 86.2047 13.6357 86.7598 13.3125C87.3149 12.9893 87.9368 12.8276 88.6255 12.8276C89.778 12.8276 90.6774 13.1895 91.3239 13.9133C91.9704 14.6371 92.2937 15.772 92.2937 17.318V22.2826L93.7694 22.5988V24.4434H87.8877V22.5988L89.2052 22.2826V17.3285C89.2052 16.5625 89.0506 16.0215 88.7415 15.7052C88.4323 15.382 87.965 15.2204 87.3395 15.2204C86.932 15.2204 86.5666 15.3047 86.2433 15.4733C85.9201 15.635 85.6495 15.8669 85.4317 16.169V22.2826L86.6755 22.5988V24.4434H80.8781V22.5988Z" fill="#2A2F37"/>
</svg>
